# xmcd
#
# Track frame offsets:
#	150
#	9769
#	22093
#	35521
#	48447
#	60460
#	71448
#	87145
#	96929
#	113032
#
# Disc length: 1617 seconds
# Revision: 0
# Processed by: cddbd v1.5.2PL0 Copyright (c) Steve Scherf et al.
# Submitted via: dBpowerAMP V12.0
#
DISCID=74064f0a
DTITLE=Hoyt Axton - Pistol Packin' Mama
DYEAR=1982
DGENRE=Country
TTITLE0=She's Too Lazy To Be Crazy
TTITLE1=Pistol Packin' Mama
TTITLE2=I Walk The Line
TTITLE3=Don't Fence Me In
TTITLE4=There Stands The Glass
TTITLE5=Warm Storms And Wild Flowers
TTITLE6=He Played Real Good For Free
TTITLE7=James Dean And The Junkman
TTITLE8=Indian Song
TTITLE9=Fearless The Wonder Dog
EXTD=
EXTT0=
EXTT1=
EXTT2=
EXTT3=
EXTT4=
EXTT5=
EXTT6=
EXTT7=
EXTT8=
EXTT9=
PLAYORDER=
